<svg viewBox="0 0 24 24" xmlns="http://www.w3.org/2000/svg">
  <path fill="#00ADD8" d="M1.811 10.231c-.047 0-.058-.023-.035-.059l.246-.315c.023-.035.081-.058.128-.058h4.172c.046 0 .058.035.035.07l-.199.303c-.023.036-.082.06-.117.06Zm-.117 2.021c-.047 0-.059-.024-.035-.059l.211-.315c.023-.036.082-.059.129-.059h4.761c.047 0 .07.024.07.059v.246c0 .035-.023.07-.07.07Zm-.199.996c-.046 0-.058-.024-.035-.059l.175-.315c.024-.036.082-.059.129-.059h2.363c.047 0 .059.023.059.059v.246c0 .035-.012.07-.059.07ZM4.57 5.284c.023-.036.082-.059.128-.059h1.184c.047 0 .06.024.06.059v6.378c0 .035-.013.07-.06.07H5.093c-.035 0-.058-.035-.058-.07Zm2.09 5.733c-.023.036-.081.059-.128.059H5.328c-.047 0-.059-.023-.059-.059V4.693c0-.035.012-.058.059-.058h1.184c.047 0 .071.023.071.058Zm7.41-2.275c.027-.042.069-.07.117-.07h.969c.047 0 .07.028.07.07v4.487c0 .035-.023.07-.07.07h-.969c-.048 0-.09-.035-.117-.082Zm.469-2.52a.138.138 0 01-.117-.07l-.398-.738a.14.14 0 01.121-.21h2.145c.07 0 .117.07.09.14l-.328.738a.138.138 0 01-.121.07Zm-3.77 7.662a.138.138 0 01-.117-.07l-.398-.738a.14.14 0 01.121-.21h2.145c.07 0 .117.07.09.14l-.328.738a.138.138 0 01-.121.07Zm4.449 2.520a.138.138 0 01-.117-.07l-.398-.738a.14.14 0 01.121-.21h2.145c.07 0 .117.07.09.14l-.328.738a.138.138 0 01-.121.07Z"/>
  <path fill="#00ADD8" d="M14.912 11.043c-1.16 0-1.742-.738-1.754-1.709-.012-1.031.61-1.731 1.742-1.731 1.133 0 1.754.7 1.754 1.731-.012.971-.595 1.709-1.742 1.709Zm0-2.484c-.621 0-.914.434-.914 1.031 0 .597.293 1.031.914 1.031s.902-.434.902-1.031c0-.597-.281-1.031-.902-1.031Z"/>
</svg> 