<svg viewBox="0 0 24 24" xmlns="http://www.w3.org/2000/svg">
  <path fill="#000000" d="M11.5725 0c-.1763 0-.3098.0013-.3584.0067-.0516.0053-.2159.021-.3636.0328-3.4088.3073-6.6017 2.1463-8.624 4.9728C1.1004 6.584.3802 8.3666.1082 10.255c-.0962.659-.108.8537-.108 1.7474s.012 1.0884.108 1.7476c.652 4.506 3.8591 8.2919 8.2087 9.6945.7789.2511 1.6.4223 2.5337.5255.3636.04 1.9354.04 2.299 0 1.6117-.1783 2.9772-.577 4.3237-1.2643.2065-.1056.2464-.1337.2183-.1573-.0188-.0139-.8987-1.1938-1.9543-2.62l-1.919-2.592-2.4047-3.5583c-1.3231-1.9564-2.4117-3.556-2.4211-3.556-.0094-.0026-.0187 1.5787-.0235 3.509-.0067 3.3802-.0093 3.5162-.0516 3.596-.061.115-.108.1618-.2064.2134-.075.0374-.1408.0445-.5429.0445h-.4570l-.108-.0616c-.0659-.0357-.1216-.1023-.1514-.1759-.0235-.0586-.0262-.1332-.0262-3.5067V6.2746l.0853-.1069c.0466-.0597.1258-.1173.1955-.1363.0527-.0141.2279-.0211.4570-.0211.3665 0 .4438.0045.5185.0371.0964.0422.1636.1056.2039.1928.0281.0581.0262.0651 2.3998 3.6868 1.3446 2.057 2.4412 3.6279 2.4412 3.6873 0 .0594.0093 0 .0234-.1077.09-1.5517.7308-3.0874 1.853-4.4273.5994-.7158 1.2606-1.2998 2.0174-1.7835.3396-.2169.859-.4623 1.2606-.5963.7308-.2438 1.4616-.3479 2.2795-.3248.3915.0094.4745.0137.4745.0973 0 .0328-.1211.1511-.2677.2628-1.4616 1.1097-2.5801 2.5934-3.1827 4.2187-.1798.4851-.3596 1.2997-.3993 1.8139l-.0281.3479-.0141-3.2976c-.0093-2.2795-.0234-3.3267-.047-3.4088-.061-.2117-.108-.2628-.2303-.3028-.0751-.0235-.3069-.0375-.515-.0328-3.9399.1406-7.3516 3.2256-8.5356 7.7119-.1798.6798-.2697 1.5817-.2697 2.704 0 1.1206.09 2.0225.2697 2.704 1.184 4.4863 4.5957 7.5713 8.5356 7.7119.208.0047.44-.0093.515-.0328.1222-.04.1693-.091.2303-.3028.0236-.0821.0377-1.1293.047-3.4088l.0141-3.2976.0281.3479c.0397.5142.2195 1.3288.3993 1.8139.602 1.6253 1.7205 3.109 3.1827 4.2187.1466.1117.2677.23.2677.2628 0 .0836-.083.0879-.4745.0973-.8179.0231-1.5487-.0807-2.2795-.3248-.4016-.1339-.921-.3794-1.2606-.5963-.7568-.4837-1.4181-1.0677-2.0174-1.7835-1.1222-1.3399-1.763-2.8756-1.853-4.4273-.0141.1077-.0234.0483-.0234-.1077 0-.0594-1.0966-1.6303-2.4412-3.6873-2.3735-3.6217-2.3717-3.6287-2.3998-3.6868-.0403-.0872-.1075-.1506-.2039-.1928-.0747-.0326-.1520-.0371-.5185-.0371-.2291 0-.4043.007-.4570.0211-.0697.019-.1489.0766-.1955.1363L5.8507 6.2746v6.6577c0 3.3735.0027 3.448.0262 3.5067.0298.0736.0855.1402.1514.1759l.108.0616h.4570c.4021 0 .4679-.007.5429-.0445.0954-.0516.1454-.0983.2064-.2134.0423-.0798.0449-.2159.0516-.596.0048-1.9303.0141-3.5117.0235-3.509.0094 0 1.098 1.5996 2.4211 3.556l2.4047 3.5583 1.919 2.592c1.0556 1.4262 1.9355 2.6061 1.9543 2.62.0281.0236-.0118.0517-.2183.1573-1.3465.6873-2.712 1.0860-4.3237 1.2643-.3636.04-1.9354.04-2.299 0-.9337-.1032-1.7548-.2744-2.5337-.5255-4.3496-1.4026-7.5561-5.1885-8.2087-9.6945-.0962-.659-.108-.8537-.108-1.7474s.012-1.0884.108-1.7476C.3802 8.3666 1.1004 6.584 2.2646 4.9728 4.287 2.1463 7.4799.3073 10.8887 0c.1477-.0115.3120-.0275.3636-.0328C11.2627.0013 11.3962 0 11.5725 0z"/>
</svg> 