<svg xmlns="http://www.w3.org/2000/svg" viewBox="0 0 24 24" width="24" height="24">
  <path fill="#000000" d="M11.5725 0c-.1763 0-.3098.0013-.3584.0067-.0516.0053-.2159.021-.3636.0328-3.4088.3073-6.6017 2.1463-8.624 4.9728C1.1004 6.584.3802 8.3666.1082 10.255c-.0962.659-.108.8537-.108 1.7474s.012 1.0884.108 1.7476c.652 4.506 3.8591 8.2919 8.2087 9.6945.7789.2511 1.6.4223 2.5337.5255.3636.04 1.9354.04 2.299 0 1.6117-.1783 2.9772-.577 4.3237-1.2643.2065-.1056.2464-.1337.2183-.1573-.0188-.0139-.8987-1.1938-1.9543-2.62l-1.919-2.592-2.4047-3.5583c-1.3231-1.9564-2.4117-3.556-2.4211-3.556-.0094-.0026-.0187 1.5787-.0187 3.509 0 3.324-.0093 3.5151-.0963 3.5835-.0374.0306-.1034.063-.1494.063-.1067 0-.2336-.0667-.3046-.1597l-.095-.1243-.0067-4.7062-.0067-4.7062.1307-.1552c.072-.0855.2159-.1815.3144-.2134.1598-.0516.2183-.0516 3.1963-.0516h3.0357l.1414.063c.0783.0353.1854.1149.2417.1833.0962.1129.1005.1419.1099.667.0067.3226.0026.5566-.008.5566-.0107 0-1.4473.8296-3.2053 1.8427l-3.1953 1.8454.0147.0293c.0787.1202 1.5374 2.2267 1.6536 2.3722.0483.0614.3144.4223.59.8028.2755.3806.5377.7399.5817.8003.0893.1202.0934.1242.0374.1202-.0333-.0013-1.4234-.8509-3.0864-1.8875-1.6629-1.0366-3.029-1.8875-3.0357-1.8875-.0067 0-.012.8296-.012 1.8427v1.8454l.0933.0932c.108.108.2336.1597.395.1597.0708 0 .2464-.0432.39-.0966.1412-.0527.2532-.0826 3.5008-1.0513l3.3133-1.0006.0933.1392c.7216 1.0779 2.1463 3.2272 2.7781 4.1885l.6907 1.0472.3637-.2785c.804-.6147 1.5373-1.3071 2.159-2.0512 1.3538-1.6115 2.2454-3.4955 2.62-5.5083.1198-.659.1411-.8923.1411-1.7532 0-.8664-.0213-1.0991-.1453-1.7664-.5857-3.126-2.4192-5.98-4.954-7.7639-1.5333-1.0725-3.2859-1.8034-5.1124-2.1278-.459-.0813-.563-.0907-1.28-.1053-.4342-.0094-1.3849-.0107-1.5373-.0013zm4.0685 14.5268c.0373.0563 0 .0869-.1145.0855-.0746-.0013-.1651-.0353-.2078-.0813-.0906-.0933-1.8474-2.6122-1.8474-2.652 0-.0407.0947-.0673.2239-.0673h.1134l.9383 1.341 1.8554 2.6602v.0067c.0012.0027.0093-.0093.0187-.026z"/>
</svg> 