<svg xmlns="http://www.w3.org/2000/svg" viewBox="0 0 24 24" width="24" height="24">
  <path fill="#539E43" d="M12 0c-.366 0-.731.096-1.05.29L3.457 4.68c-.633.38-.95 1.054-.95 1.764v9.12c0 .709.317 1.371.95 1.761l7.493 4.391c.319.186.684.284 1.05.284.37 0 .736-.098 1.054-.284l7.494-4.39c.634-.391.95-1.053.95-1.762V6.444c0-.71-.316-1.384-.95-1.764L13.05.29C12.731.096 12.366 0 12 0zm-.376 14.698l.016.01v.004h.001c.042.025.072.066.076.114v2.336c0 .07-.056.125-.125.125h-.916a.125.125 0 01-.125-.125v-2.317a.11.11 0 00-.055-.097l-.008-.004-.026-.015a.11.11 0 00-.057-.016H9.29c-.02 0-.04.004-.057.012l-.005.003-.007.004c-.036.023-.06.062-.06.106v2.324c0 .07-.056.125-.125.125h-.916a.125.125 0 01-.125-.125v-2.355c0-.082.07-.152.153-.149.17.004.915.048 1.999.048 1.095 0 1.843-.042 2.034-.047.079-.002.144.061.144.142zM4.893 14.39v2.894c0 .071-.058.129-.129.129H3.838a.129.129 0 01-.129-.129v-2.894c0-.071.058-.129.129-.129h.926c.071 0 .129.058.129.129zm15.858.516a.129.129 0 01.129.129v.867a.129.129 0 01-.102.126c-.205.041-1.043.228-1.043 1.01 0 .62.5.947 1.142.947.559 0 .878-.055.985-.07a.13.13 0 01.149.127v.861a.13.13 0 01-.106.127 5.184 5.184 0 01-1.114.115c-1.796 0-2.098-1.035-2.098-1.755 0-1.116.947-1.971 2.002-1.983h.056zm-3.601.174c.07 0 .128.057.128.128v2.346c0 .07-.057.128-.128.128h-.926a.128.128 0 01-.127-.128v-2.346c0-.07.057-.128.127-.128h.926zm-9.063.162a.129.129 0 01.128.128v2.165c0 .071-.057.129-.128.129h-.891a.129.129 0 01-.128-.129v-2.165c0-.071.057-.128.128-.128h.891zm4.426-.296v2.894c0 .071-.058.129-.129.129h-.926a.129.129 0 01-.129-.129v-2.894c0-.071.058-.129.129-.129h.926c.071 0 .129.058.129.129zm-2.243.037c.07 0 .128.057.128.128v2.692c0 .071-.057.129-.128.129h-.927a.129.129 0 01-.128-.129v-2.692c0-.071.057-.128.128-.128h.927zM12 2.276L17.484 5.5 12 8.724 6.516 5.5 12 2.276zM6.727 15.33a.13.13 0 01-.127.129h-.891a.129.129 0 01-.129-.129v-1.933c0-.071.058-.128.129-.128h.891c.07 0 .127.057.127.128v1.933zm11.644-.147c.07 0 .128.057.128.128v.792c0 .071-.057.129-.128.129h-.94a.129.129 0 01-.127-.129v-.792c0-.07.057-.128.128-.128h.939z"/>
</svg> 