<svg viewBox="0 0 24 24" xmlns="http://www.w3.org/2000/svg">
  <defs>
    <linearGradient id="pythonGradient1" x1="0%" y1="0%" x2="100%" y2="100%">
      <stop offset="0%" style="stop-color:#3776AB"/>
      <stop offset="100%" style="stop-color:#4B8BBE"/>
    </linearGradient>
    <linearGradient id="pythonGradient2" x1="0%" y1="0%" x2="100%" y2="100%">
      <stop offset="0%" style="stop-color:#FFD43B"/>
      <stop offset="100%" style="stop-color:#FFE873"/>
    </linearGradient>
  </defs>
  <path fill="url(#pythonGradient1)" d="M11.99 0C5.89 0 3.13 2.59 3.13 5.84v2.51h8.73v1.11H2.86c-1.9 0-3.56 1.14-4.08 3.32-.59 2.5-.62 4.05 0 6.68.46 1.97 1.56 3.43 3.46 3.43h2.24v-2.98c0-2.16 1.87-4.06 4.08-4.06h8.71c1.82 0 3.28-1.49 3.28-3.32V5.84C20.25 2.59 17.83 0 11.99 0zM8.75 3.28c.68 0 1.23.56 1.23 1.25s-.55 1.25-1.23 1.25-1.23-.56-1.23-1.25.55-1.25 1.23-1.25z"/>
  <path fill="url(#pythonGradient2)" d="M20.25 6.85v2.9c0 2.25-1.91 4.15-4.08 4.15H7.46c-1.79 0-3.28 1.52-3.28 3.32v6.92c0 3.25 2.83 5.16 8.71 6.09 3.54.56 6.81.66 8.71 0 1.28-.44 2.6-1.33 2.6-3.07v-2.51h-8.71V23.5h13.07c1.9 0 2.6-1.33 3.06-3.43.48-2.18.46-4.28 0-6.68-.33-1.73-1.16-3.43-3.06-3.43h-2.31v3.1zm-4.84 13.6c.68 0 1.23.56 1.23 1.25s-.55 1.25-1.23 1.25-1.23-.56-1.23-1.25.55-1.25 1.23-1.25z"/>
</svg> 