<svg viewBox="0 0 24 24" xmlns="http://www.w3.org/2000/svg">
  <path fill="#CE422B" d="M23.8346 11.7033l-1.0073-.6236a13.7268 13.7268 0 00-.0283-.2936l.8656-.8069a.3483.3483 0 00-.1154-.578l-1.1066-.414a8.4958 8.4958 0 00-.0828-.2856l.6933-.9574a.3462.3462 0 00-.2257-.5446l-1.1663-.1894a9.3574 9.3574 0 00-.1198-.2622l.4901-1.0825a.3442.3442 0 00-.3193-.4906l-1.1808.0574a4.6086 4.6086 0 00-.1541-.2311L20.2193 4.84a.3462.3462 0 00-.4015-.4015l-1.0492.7308a10.0525 10.0525 0 00-.1808-.1808l.7308-1.0492a.3462.3462 0 00-.4015-.4015l-1.0825.4901a4.6086 4.6086 0 00-.2311-.1541l.0574-1.1808a.3442.3442 0 00-.4906-.3193l-1.0825.4901a9.3574 9.3574 0 00-.2622-.1198l-.1894-1.1663a.3462.3462 0 00-.5446-.2257l-.9574.6933a8.4958 8.4958 0 00-.2856-.0828L14.125.8346a.3483.3483 0 00-.578-.1154l-.8069.8656a13.7268 13.7268 0 00-.2936-.0283L11.7397.5346a.3472.3472 0 00-.5985 0l-.6236 1.0073a13.7268 13.7268 0 00-.2936.0283l-.8069-.8656a.3483.3483 0 00-.578.1154l-.414 1.1066a8.4958 8.4958 0 00-.2856.0828l-.9574-.6933a.3462.3462 0 00-.5446.2257l-.1894 1.1663a9.3574 9.3574 0 00-.2622.1198l-1.0825-.4901a.3442.3442 0 00-.4906.3193l.0574 1.1808a4.6086 4.6086 0 00-.2311.1541L3.6826 4.84a.3462.3462 0 00-.4015.4015l.7308 1.0492a10.0525 10.0525 0 00-.1808.1808L2.7818 5.4122a.3462.3462 0 00-.4015.4015l.4901 1.0825a4.6086 4.6086 0 00-.1541.2311L1.536 7.0699a.3442.3442 0 00-.3193.4906l.4901 1.0825a9.3574 9.3574 0 00-.1198.2622l-1.1663.1894a.3462.3462 0 00-.2257.5446l.6933.9574a8.4958 8.4958 0 00-.0828.2856L.1654 11.125a.3483.3483 0 00-.1154.578l.8656.8069a13.7268 13.7268 0 00-.0283.2936L.5346 12.2603a.3472.3472 0 000 .5985l1.0073.6236c.0095.0977.0194.1953.0283.2936l-.8656.8069a.3483.3483 0 00.1154.578l1.1066.414c.0268.0955.0539.191.0828.2856l-.6933.9574a.3462.3462 0 00.2257.5446l1.1663.1894c.0396.0875.0796.1748.1198.2622l-.4901 1.0825a.3442.3442 0 00.3193.4906l1.1808-.0574c.0508.078.1020.1556.1541.2311L3.2807 19.16a.3462.3462 0 00.4015.4015l1.0492-.7308c.0595.0608.1199.1212.1808.1808L4.1814 19.96a.3462.3462 0 00.4015.4015l1.0825-.4901c.0763.0521.1539.1033.2311.1541l-.0574 1.1808a.3442.3442 0 00.4906.3193l1.0825-.4901c.0874.0402.1747.0802.2622.1198l.1894 1.1663a.3462.3462 0 00.5446.2257l.9574-.6933c.0946.0289.1901.056.2856.0828l.414 1.1066a.3483.3483 0 00.578.1154l.8069-.8656c.0983.0089.1959.0188.2936.0283l.6236 1.0073a.3472.3472 0 00.5985 0l.6236-1.0073c.0977-.0095.1953-.0194.2936-.0283l.8069.8656a.3483.3483 0 00.578-.1154l.414-1.1066c.0955-.0268.191-.0539.2856-.0828l.9574.6933a.3462.3462 0 00.5446-.2257l.1894-1.1663c.0875-.0396.1748-.0796.2622-.1198l1.0825.4901a.3442.3442 0 00.4906-.3193l-.0574-1.1808c.078-.0508.1556-.1020.2311-.1541l1.0492.7308a.3462.3462 0 00.4015-.4015l-.7308-1.0492c.0608-.0595.1212-.1199.1808-.1808l1.0492.7308a.3462.3462 0 00.4015-.4015l-.4901-1.0825c.0521-.0763.1033-.1539.1541-.2311l1.1808.0574a.3442.3442 0 00.4906-.3193l-.4901-1.0825c.0402-.0874.0802-.1747.1198-.2622l1.1663-.1894a.3462.3462 0 00.2257-.5446l-.6933-.9574c.0289-.0946.056-.1901.0828-.2856l1.1066-.414a.3483.3483 0 00.1154-.578l-.8656-.8069c.0089-.0983.0188-.1959.0283-.2936l1.0073-.6236a.3472.3472 0 000-.5985zM12 16.5882c-2.5316 0-4.5882-2.0566-4.5882-4.5882S9.4684 7.4118 12 7.4118s4.5882 2.0566 4.5882 4.5882S14.5316 16.5882 12 16.5882z"/>
  <circle fill="#000" cx="12" cy="12" r="2"/>
</svg> 