<svg width="270" height="270" viewBox="0 0 270 270" fill="none" xmlns="http://www.w3.org/2000/svg">
<g clip-path="url(#clip0_1_18)">
<path d="M265.927 167.67C247.905 240.007 174.656 283.995 102.33 265.95C30.0374 248.062 -13.9951 174.656 4.0724 102.431C22.0724 30.0374 95.3436 -13.9838 167.625 4.02741C239.962 22.0837 283.972 95.3212 265.927 167.692V167.67ZM194.49 115.774C197.19 97.9199 183.532 88.2674 164.812 81.8549L170.887 57.6337L156.094 53.9212L150.187 77.6249C146.306 76.6462 142.256 75.7462 138.217 74.8124L144.18 51.1424L129.33 47.4299L123.255 71.6624C120.049 70.9312 116.899 70.1999 113.805 69.4124L113.861 69.1874L93.3861 64.0687L89.4486 79.8862C89.4486 79.8862 100.417 82.4174 100.192 82.5637C106.211 84.0937 107.28 88.0312 107.111 91.1812L100.136 119.047C100.541 119.16 101.081 119.317 101.655 119.61L100.114 119.227L90.3262 158.411C89.5837 160.177 87.7049 162.832 83.4636 161.809C83.6324 162.034 72.6636 159.109 72.6636 159.109L65.2949 176.164L84.5774 180.956C88.1774 181.856 91.6987 182.79 95.1524 183.656L89.0211 208.215L103.871 211.927L109.946 187.74C113.996 188.865 117.877 189.877 121.759 190.811L115.684 214.92L130.534 218.632L136.665 194.141C161.932 198.945 180.967 197.01 188.977 174.184C195.435 155.801 188.64 145.237 175.365 138.33C185.04 136.102 192.24 129.78 194.265 116.617H194.377L194.49 115.774ZM160.627 163.249C156.082 181.699 125.111 171.686 115.065 169.211L123.165 136.699C133.245 139.174 165.431 144.124 160.627 163.215V163.249ZM165.24 115.549C161.077 132.311 135.292 123.817 126.934 121.736L134.291 92.2049C142.661 94.2974 169.582 98.2237 165.229 115.56L165.24 115.549Z" fill="#F7931A"/>
</g>
<defs>
<clipPath id="clip0_1_18">
<rect width="270" height="270" fill="white"/>
</clipPath>
</defs>
</svg>
