<svg viewBox="0 0 24 24" xmlns="http://www.w3.org/2000/svg">
  <path fill="#F7931A" d="M23.638 14.904c-1.602 6.43-8.113 10.34-14.542 8.736C2.67 22.05-1.244 15.525.362 9.105 1.962 2.67 8.475-1.243 14.9.358c6.43 1.605 10.342 8.115 8.738 14.548v-.002zm-6.35-4.613c.24-1.587-.974-2.445-2.638-3.015l.54-2.153-1.315-.33-.525 2.107c-.345-.087-.705-.167-1.064-.25l.53-2.104-1.32-.33-.54 2.154c-.285-.065-.565-.13-.84-.2l.005-.02-1.82-.455-.35 1.406s.975.225.955.238c.535.136.63.486.615.766l-.62 2.477c.036.01.084.024.135.05l-.137-.034-.87 3.483c-.066.157-.233.393-.61.302.015.02-.96-.24-.96-.24l-.655 1.516 1.714.426c.32.08.633.163.94.24l-.545 2.183 1.32.33.54-2.15c.36.1.705.19 1.05.273l-.54 2.143 1.32.33.545-2.177c2.246.427 3.938.255 4.65-1.774.574-1.634-.03-2.573-1.21-3.187.86-.198 1.5-.76 1.68-1.93h.01zm-3.01 4.22c-.404 1.64-3.157.75-4.05.53l.72-2.89c.896.22 3.757.66 3.33 2.357zm.41-4.24c-.37 1.49-2.662.735-3.405.55l.654-2.625c.744.186 3.137.535 2.75 2.076z"/>
</svg> 