<svg width="2000" height="2089" viewBox="0 0 2000 2089" fill="none" xmlns="http://www.w3.org/2000/svg">
<g clip-path="url(#clip0_1_65)">
<path fill-rule="evenodd" clip-rule="evenodd" d="M1726.6 681.4L1596.8 450.8L1848.3 450.9C1855 450.9 1862.9 455.4 1866.5 461.4C1870.5 468 1890.9 501.7 1915.5 542.1C1944.9 590.5 1980 648.4 2000.1 681.4H1726.6ZM1261.4 2078C1255.3 2088.9 1247.4 2088.9 1244.8 2088.9H1142C1087.6 2088.9 1024.9 2088.8 987.5 2088.8L1387.1 1371.4C1397.5 1352.9 1390.8 1329.4 1372.3 1319.1C1366.6 1315.9 1360.2 1314.2 1353.7 1314.2L672.7 1315.1L537.2 1080.6H1529.2C1529.3 1080.6 1529.4 1080.6 1529.5 1080.6C1529.6 1080.6 1529.7 1080.6 1529.8 1080.6C1530.4 1080.6 1530.9 1080.4 1531.4 1080.4C1533.6 1080.3 1535.8 1080 1538 1079.5C1539.6 1079.1 1541.3 1078.6 1542.8 1078C1543.6 1077.7 1544.5 1077.3 1545.3 1077C1553 1073.7 1559.4 1067.9 1563.5 1060.5L1727 758.2H1997L1261.4 2078ZM921.1 2050.7C912.4 2036.4 901.1 2017.8 888.8 1997.6C847.5 1929.4 794.6 1842.1 788.6 1832.5C786.6 1829.3 785.7 1821.4 789.9 1813.8C799.5 1796.6 980.3 1470.8 1024.4 1391.4L1288.5 1391.1L921.1 2050.7ZM470.8 1601.8L339.5 1368.6L471.8 1120.6L604.5 1350.3C563.3 1428 498.9 1549.1 470.8 1601.8ZM294.6 1638.1C227.8 1638.1 161.3 1638.1 151.6 1638.1C145.1 1638.1 137.2 1633.5 133.6 1627.6L90.9 1557.2C60.4 1507 21.5 1442.9 0 1407.5H273.4L403.2 1638.1C374.9 1638.1 334.8 1638.1 294.6 1638.1ZM738.6 11C744.7 0 752.6 0 755.1 0H1013.4L612.7 717.4C612.4 718 612.2 718.6 611.9 719.3C611.3 720.5 610.8 721.7 610.3 723C609.9 724.2 609.5 725.4 609.2 726.7C608.9 728 608.6 729 608.4 730.2C608.2 731.6 608 733 608 734.5C608 735.1 607.8 735.7 607.8 736.4C607.8 736.9 607.9 737.3 608 737.8C608 739.2 608.2 740.6 608.4 742C608.5 743.2 608.7 744.3 609 745.5C609.3 746.7 609.7 747.9 610.1 749.1C610.5 750.3 610.9 751.4 611.4 752.6C611.9 753.8 612.5 754.8 613.1 755.8C613.7 756.8 614.3 757.9 615.1 758.9C615.8 759.9 616.6 760.9 617.5 761.8C618.3 762.7 619.1 763.6 620 764.5C620.9 765.4 621.8 766 622.8 766.8C623.9 767.6 625 768.4 626.1 769.1C626.5 769.4 626.9 769.7 627.3 770C627.7 770.3 628.2 770.3 628.7 770.6C630.7 771.6 632.8 772.5 634.9 773.1C635.7 773.3 636.4 773.6 637.2 773.8C640 774.5 642.9 774.9 645.9 774.9C645.9 774.9 645.9 774.9 646 774.9H646.1H663.1C663.2 774.9 663.3 774.9 663.3 774.9L1327.2 774C1344.8 804.5 1377.6 862 1405.5 910.9C1426.9 948.5 1444.7 979.5 1458.7 1003.9H470.7C470.3 1003.9 469.9 1004 469.4 1004.1C455.5 1004.2 442.8 1012 436.2 1024.2L272.6 1330.8H3.1C120.8 1119.3 730.7 25 738.6 11ZM1079.4 39.1L1103.4 78.6C1145.5 148.1 1205 246.2 1211.3 256.4C1213.3 259.6 1214.2 267.5 1210 275.1L975.6 697.3L711.6 697.6L1079.4 39.1ZM1529.1 486.9L1660.4 720.2L1526.5 967.7C1510.5 939.9 1490.7 905.1 1472.1 872.5C1435.3 808.1 1408.5 761.2 1393.4 735C1422.1 682.8 1497.5 544.5 1529.1 486.9Z" fill="black"/>
</g>
<defs>
<clipPath id="clip0_1_65">
<rect width="2000" height="2088.9" fill="white"/>
</clipPath>
</defs>
</svg>
