<svg width="423" height="423" viewBox="0 0 423 423" fill="none" xmlns="http://www.w3.org/2000/svg">
<g clip-path="url(#clip0_1_43)">
<path d="M211.5 400.109C315.666 400.109 400.109 315.666 400.109 211.5C400.109 107.334 315.666 22.8911 211.5 22.8911C107.334 22.8911 22.8911 107.334 22.8911 211.5C22.8911 315.666 107.334 400.109 211.5 400.109Z" fill="white"/>
<path d="M211.5 0C169.669 0 128.778 12.4043 93.997 35.6442C59.216 58.8841 32.1075 91.9159 16.0996 130.562C0.0916389 169.209 -4.09677 211.735 4.06401 252.762C12.2248 293.789 32.3682 331.474 61.947 361.053C91.5258 390.632 129.212 410.775 170.239 418.936C211.265 427.097 253.791 422.908 292.438 406.901C331.084 390.893 364.116 363.784 387.356 329.003C410.596 294.222 423 253.331 423 211.5C423.081 183.806 417.706 156.367 407.183 130.751C396.659 105.134 381.193 81.8408 361.668 62.2012C342.142 42.5616 318.94 26.9601 293.385 16.2876C267.83 5.61513 240.423 0.0805835 212.729 0H211.5ZM215.085 218.67L193.064 292.925H310.849C311.629 292.898 312.407 293.024 313.138 293.298C313.869 293.571 314.54 293.986 315.11 294.519C315.681 295.052 316.141 295.692 316.464 296.402C316.788 297.113 316.968 297.88 316.994 298.661V300.607L306.752 335.942C306.3 337.613 305.294 339.081 303.898 340.104C302.502 341.128 300.8 341.647 299.07 341.575H118.809L149.023 238.642L115.224 248.884L122.906 225.327L156.705 215.085L199.21 70.6707C199.677 69.0091 200.688 67.5518 202.08 66.5309C203.472 65.51 205.166 64.9843 206.891 65.0375H252.469C253.249 65.0102 254.027 65.1369 254.758 65.4104C255.489 65.6839 256.159 66.0988 256.73 66.6315C257.301 67.1642 257.761 67.8042 258.084 68.5148C258.407 69.2255 258.587 69.9929 258.614 70.7731V72.7191L222.766 194.6L256.565 184.358L249.396 208.939L215.085 218.67Z" fill="#345D9D"/>
</g>
<defs>
<clipPath id="clip0_1_43">
<rect width="423" height="423" fill="white"/>
</clipPath>
</defs>
</svg>
