<svg width="380" height="380" viewBox="0 0 380 380" fill="none" xmlns="http://www.w3.org/2000/svg">
<g clip-path="url(#clip0_1_56)">
<path d="M304.506 19.4222L225.216 137.222C219.734 145.244 230.277 154.956 237.869 148.2L315.893 80.2222C318.002 78.5333 320.954 79.8 320.954 82.7556V295.133C320.954 298.089 317.159 299.356 315.472 297.244L79.2897 14.3556C71.6981 5.06667 60.7325 0 48.5017 0H40.0666C18.1354 0 0 18.1556 0 40.5333V339.467C0 361.844 18.1354 380 40.4883 380C54.4062 380 67.4806 372.822 75.0721 360.578L154.362 242.778C159.845 234.756 149.301 225.044 141.709 231.8L63.6848 299.356C61.576 301.044 58.6237 299.778 58.6237 296.822V84.8667C58.6237 81.9111 62.4195 80.6444 64.1065 82.7556L300.289 365.644C307.88 374.933 319.267 380 331.077 380H339.512C361.865 380 380 361.844 380 339.467V40.5333C380 18.1556 361.865 0 339.512 0C325.172 0 312.098 7.17778 304.506 19.4222Z" fill="black"/>
</g>
<defs>
<clipPath id="clip0_1_56">
<rect width="380" height="380" fill="white"/>
</clipPath>
</defs>
</svg>
