<svg width="2493" height="2500" viewBox="0 0 2493 2500" fill="none" xmlns="http://www.w3.org/2000/svg">
<g clip-path="url(#clip0_1_69)">
<path d="M2474.3 1224.9C2404.5 1157.6 2338.5 1086.6 2268.7 1019.3C2248.2 1003.5 2241 975.8 2251.3 952C2280 854.8 2304.9 757.6 2332.3 660.4C2339.8 636.7 2336 626.8 2309.9 620.5C2210.2 595.6 2111.8 565.7 2010.8 540.7C1982.1 534.5 1970.9 519.5 1964.7 493.3C1939.8 396.1 1912.4 301.4 1888.7 204.2C1881.2 175.5 1872.5 169.3 1843.8 178C1746.6 205.4 1648.2 230.3 1551 255.3C1534.8 260.3 1519.8 264 1504.9 249.1C1425.1 167 1341.6 88.5 1264.4 2.5C1255.6 2.7 1246.8 1.9 1238.2 0C1238.7 6.6 1235.3 13 1229.5 16.2C1154.7 89.7 1080 163.2 1006.4 238C992.3 255.3 968.5 261.4 947.8 253C850.6 225.6 753.4 200.7 656.2 173.2C628.8 165.7 617.6 170.7 610.1 199.4C585.2 296.6 556.5 393.8 531.6 491C529 511.4 513.3 527.7 493 530.9C394.6 555.8 298.6 583.2 200.2 606.9C167.8 614.4 159.1 625.6 169 659.2C197.7 755.2 220.1 853.6 247.5 950.8C256.3 971.5 250.2 995.4 232.5 1009.4C159 1080.4 87.8999 1154 14.3999 1225C-5.50012 1243.7 -4.30012 1254.9 14.3999 1273.6C86.6999 1344.6 156.5 1416.9 228.7 1487.9C246.5 1501.1 253.2 1524.7 244.9 1545.2C217.5 1641.2 193.8 1737.1 165.1 1833.1C155.1 1866.7 160.1 1880.5 196.3 1889.2C293.5 1912.9 388.2 1941.5 485.4 1965.2C514.1 1971.4 525.3 1986.4 531.5 2012.6C556.4 2111 583.8 2207 608.8 2305.4C615 2330.3 623.8 2336.6 648.7 2329.1C744.7 2301.7 841.8 2279.3 937.8 2251.8C963.3 2242.2 992.1 2250.3 1008.8 2271.7C1077.3 2342.7 1147.1 2411.3 1215.7 2482.3C1236.9 2504.7 1249.3 2506 1271.8 2483.5C1340.3 2411.2 1412.6 2342.7 1482.4 2270.4C1498.1 2249.7 1525.6 2242.1 1549.7 2251.7C1645.7 2280.4 1741.6 2304 1837.6 2331.5C1865 2339 1876.2 2334 1883.7 2305.3C1907.4 2209.3 1937.3 2113.4 1961 2017.4C1967.2 1988.7 1980.9 1977.5 2008.4 1971.3C2105.6 1947.6 2200.3 1920.2 2297.5 1896.5C2326.2 1890.3 2334.9 1879.1 2326.2 1849.1C2298.8 1751.9 2273.9 1652.2 2246.4 1553.8C2237.6 1533.1 2243.7 1509.2 2261.4 1495.2C2332.4 1426.7 2402.2 1354.4 2474.5 1285.9C2500.5 1261.1 2498 1248.6 2474.3 1224.9ZM626.3 1168.9C626.3 1169 626.3 1169.1 626.3 1169.2C625.9 1211.5 591.3 1245.4 549 1245H471.7C439.3 1245 406.9 1245 373.3 1246.2C355.9 1246.2 350.9 1240 354.6 1222.5C363.3 1186.4 372 1157.7 419.4 1150.2C480.5 1141.5 539 1120.3 598.8 1102.8C620 1097.8 628.7 1100.3 626.2 1122.7C625.1 1137.7 626.3 1153.9 626.3 1168.9ZM622.6 1848.8C571.2 1800.4 525.2 1755.7 478 1711C517.9 1688.6 556.5 1667.4 593.9 1645C615.1 1632.5 622.6 1635 622.6 1661.2C621.4 1722 622.6 1784.2 622.6 1848.8ZM484.3 1684.8C469.3 1693.5 465.6 1689.8 461.9 1674.8C450.7 1629.9 437 1585.1 425.8 1540.2C423.3 1530.2 422.1 1517.8 432 1511.5C442 1505.3 449.4 1514 456.9 1517.7C508 1546.4 559.1 1576.3 617.7 1608.7C570.3 1634.9 526.6 1658.6 484.3 1684.8ZM389.6 1016.8C377.1 1048 333.5 1052.9 304.9 1072.9C276.2 999.4 276.2 999.4 326.1 948.3C361 913.4 395.9 879.8 430.8 844.9C434 842.9 437.3 841.3 440.8 839.9C423.2 902.2 412 962 389.6 1016.8ZM464.3 826.2C466.8 815 475.5 817.5 481.7 821.2C524.1 846.1 565.2 871 612.5 898.5C545.2 937.1 484.1 972 414.4 1009.4C431.9 943.3 448.1 884.7 464.3 826.2ZM333.5 1153.9C319.8 1153.9 319.8 1140.2 317.3 1131.5C303.6 1090.4 306.1 1087.9 380.9 1056.7C373.9 1085.4 367.2 1109 361.5 1131.5C359.6 1145.2 347.3 1155.1 333.5 1153.9ZM258.7 1175.1C211.3 1187.6 164 1198.8 116.6 1210L112.9 1205L284.9 1104.1C313.6 1157.7 312.3 1161.4 258.7 1175.1ZM294.9 1185.1C327.3 1177.6 317.3 1211.3 323.6 1225C329.8 1238.7 321.1 1244.9 306.2 1244.9H103C103 1242.4 101.8 1238.7 101.8 1236.2C165.3 1220 228.8 1201.3 294.9 1185.1ZM343.7 1303C356.1 1350.1 368.5 1397.2 382.6 1448C288.1 1402 300.3 1427.9 343.7 1303ZM311.6 1436.8C342.8 1435.6 398.8 1487.9 398.8 1516.6C390.8 1537.8 373.9 1557.7 357.7 1580.2C356.5 1580.2 355.2 1581.4 354 1581.4C341.5 1583.9 280.5 1509.1 283 1495.4C284.2 1492.9 284.2 1490.4 285.5 1487.9C294.1 1470.4 284.2 1438 311.6 1436.8ZM339 1642.4C351.5 1623.7 360.2 1616.2 377.6 1637.4C393.7 1655.8 410.7 1673.2 428.7 1689.7C434.9 1697.2 447.4 1703.4 431.2 1713.4C360.2 1753.3 287.9 1794.4 216.9 1834.3C214.9 1832.5 213.3 1830.4 211.9 1828.1C253.7 1765.8 296.1 1704.7 339 1642.4ZM408.3 1547.7C419.5 1587.6 429.5 1627.5 440.7 1669.8C359.7 1612.5 357.2 1605 408.3 1547.7ZM438.2 1461.7C424.5 1482.9 409.5 1474.2 404.6 1456.7C387.2 1396.9 371 1337.1 356 1277.3C349.8 1257.4 367.2 1262.3 377.2 1262.3H575.3C526.6 1333.4 483 1398.2 438.2 1461.7ZM615.1 1080.4C539.1 1100.3 463.1 1120.3 383.3 1141.5C388.3 1069.2 413.2 1021.9 479.3 995.7C529.1 975.8 574 943.4 627.6 913.5V1063C628.7 1071.1 623.3 1078.8 615.1 1080.4ZM626.3 697.8V883.5C580.2 857.3 539.1 832.4 499.2 808.7C485.5 801.2 481.8 793.7 495.5 780C529.1 747.6 561.5 715.2 593.9 681.6C600 672.7 611.6 669.6 621.3 674.1C631.3 677.9 626.3 689.1 626.3 697.8ZM488 748.9C500.5 660.4 506.7 654.2 571.5 674.1C542.8 700.3 514.2 725.2 488 748.9ZM616.4 269.2C618.9 270.4 622.6 270.4 625.1 271.7V437.4C625.1 505.9 625.1 505.9 549.1 515.9C571.5 432.4 593.9 350.2 616.4 269.2ZM534.1 567C539.1 534.6 564 538.3 585.2 529.6C621.3 514.6 628.8 530.8 625.1 562V577C625.1 644.3 591.5 669.2 529.1 646.8C521.6 644.3 516.6 641.8 517.9 634.3C522.9 611.8 530.4 589.4 534.1 567ZM247.5 618.1C336.5 595.7 425.7 572 519.2 548.3C511.7 578.2 505.5 601.9 499.3 626.8C494.3 646.7 479.4 643 465.7 641.8C393.4 635.6 319.9 630.6 246.4 624.4C247.3 622.4 247.7 620.2 247.5 618.1ZM466.8 660.4C484.2 661.6 488 667.9 484.2 685.3C461.8 787.5 463 787.5 374.5 735.1C328.4 707.7 281 680.3 229.9 650.4C313.6 643 390.8 656.7 466.8 660.4ZM196.4 666.7C195.2 663 195.2 660.5 193.9 656.7C197.6 656.7 200.1 657.9 203.9 657.9C278.7 701.5 354.7 746.4 431.9 790C439.4 795 450.6 797.5 438.1 811.2C387 863.5 337.2 917.1 287.3 970.7C282.5 969.1 277.9 967.1 273.6 964.5C247.5 864.8 222.6 766.4 196.4 666.7ZM261.2 1013.1C264.9 1016.8 268.7 1018.1 268.7 1019.3C286.1 1082.9 286.1 1082.9 228.8 1115.3C186.4 1140.2 142.8 1163.9 95.4999 1190.1C152.8 1127.7 206.4 1070.4 261.2 1013.1ZM59.3999 1262.3C139.2 1262.3 217.7 1262.3 297.4 1261.1C318.6 1261.1 327.3 1264.8 318.6 1289.8C306.1 1323.4 307.4 1377 285 1388.2C258.8 1401.9 222.7 1360.8 191.5 1344.6C146.6 1320.9 103 1293.5 58.1999 1268.6C58.5999 1266.5 59.0999 1264.4 59.3999 1262.3ZM90.4999 1317.2L91.6999 1316C155.3 1339.7 210.1 1379.6 268.6 1412C284.8 1420.7 281.1 1443.2 257.4 1490.5C200.2 1433 142.8 1378.2 90.4999 1317.2ZM269.9 1537.7C273.6 1538.9 277.4 1538.9 278.6 1540.2C343.4 1602.5 343.4 1602.5 292.3 1676C264.9 1715.9 236.2 1754.5 208.8 1793.1L202.6 1788.1L269.9 1537.7ZM193.9 1870.4C281.1 1820.6 359.6 1775.7 439.4 1730.8C449.4 1724.6 454.4 1725.8 458.1 1738.3C476.8 1809.3 495.5 1879.1 516.7 1957.6C405.8 1926.5 304.8 1899.1 193.9 1870.4ZM619.4 2234.3C616.9 2234.3 614.4 2235.5 611.9 2235.5C589.5 2154.5 568.3 2073.5 545.9 1990H545.4C554.1 1988.8 556.6 1987.5 559.6 1988.8C619.4 2002.5 619.4 2002.5 619.4 2064.8V2234.3ZM621.4 1980.1C612.7 1981.3 611.4 1982.6 611.4 1982.6C556.6 1978.9 526.7 1951.4 519.2 1895.4C511.7 1848 496.8 1803.2 491.8 1753.3C531.7 1793.2 574 1830.6 610.2 1874.2C636.3 1905.3 611.4 1944 621.4 1980.1ZM626.3 1382L622.6 1556.5C622.6 1578.9 618.9 1588.9 595.2 1573.9C552.8 1549 510.5 1524.1 466.8 1501.6C448.1 1491.6 448.1 1482.9 459.3 1466.7C502.9 1404.4 546.5 1342.1 588.9 1278.5C593.8 1267.5 605.7 1261.3 617.6 1263.5C635 1266 626.3 1279.7 626.3 1288.4C627.6 1319.6 626.3 1350.8 626.3 1382ZM1698 793.8C1660.6 768.9 1614.5 758.9 1598.3 710.3C1591.8 696.4 1592.3 680.2 1599.5 666.7C1631.9 613.1 1663.1 559.5 1693 505.9C1705.5 484.7 1712.9 488.5 1729.1 502.2C1756.5 525.9 1766.5 549.6 1754 585.7C1732.9 654.2 1716.7 724 1698 793.8ZM1853.8 1733.4C1853.8 1836.8 1853.8 1836.8 1750.4 1828.1C1700.6 1824.4 1649.5 1819.4 1599.6 1815.6C1587.1 1814.4 1577.2 1813.1 1573.4 1798.2C1569.7 1783.2 1583.4 1782 1592.1 1777C1670.6 1733.4 1747.9 1689.8 1825.1 1644.9C1848.8 1631.2 1856.3 1637.4 1853.8 1663.6C1852.5 1687.3 1853.8 1709.7 1853.8 1733.4ZM1403.9 2048.6C1361.5 2017.4 1312.9 1993.8 1264.3 1965.1C1309.2 1940.2 1350.3 1916.5 1392.7 1891.6C1400 1886 1410.4 1887.1 1416.4 1894.1C1471.2 1948.9 1527.3 2003.8 1584.6 2061.1C1577.1 2067.3 1575.9 2068.6 1575.9 2068.6C1514.8 2096 1458.8 2091 1403.9 2048.6ZM1455 2101C1390.2 2117.2 1332.9 2133.4 1275.6 2148.4C1261.9 2152.1 1256.9 2148.4 1256.9 2133.4V1983.9C1325.4 2023.7 1386.5 2059.8 1455 2101ZM822 2039.9C804.6 2034.9 813.3 2024.9 818.3 2016.2C850.7 1960.1 884.3 1904 919.2 1843C955.3 1919 989 1988.8 1021.4 2058.6C1033.9 2083.5 1021.4 2092.2 1001.5 2087.3C941.6 2073.6 881.8 2056.1 822 2039.9ZM986.5 2103.5C904.3 2158.3 901.8 2157.1 829.5 2061.1C883 2076 932.9 2088.5 986.5 2103.5ZM797.6 1729.6C798.8 1723.4 802.6 1717.1 810.1 1722.1C836.3 1738.3 867.4 1745.8 886.1 1773.2C904.8 1800.6 912.3 1828 888.6 1860.4C860.2 1902.1 834.8 1945.9 812.6 1991.2C793.9 2027.3 779 2024.8 757.8 1996.2C749.1 1983.7 731.6 1977.5 735.4 1957.6C755.9 1881.7 775.9 1805.6 797.6 1729.6ZM643.8 538.3C643.6 537.3 643.4 536.2 643.4 535.2C642.3 521.5 652.6 509.5 666.3 508.4C693.7 503.4 721.1 495.9 748.5 488.5C751.8 487.9 755.2 487.9 758.5 488.5C756.2 490 754.4 492.2 753.5 494.7C718.6 528.3 683.7 563.2 643.8 601.9C643.8 578.2 645 558.3 643.8 538.3ZM652.5 625.6C697.4 578.2 743.5 532.1 793.3 481C831.9 548.3 865.6 608.1 905.5 675.4C817 669.2 736 664.2 656.3 655.5C632.6 653 642.5 635.5 652.5 625.6ZM1077.4 449.9C1123.5 486 1178.3 512.2 1234.4 544.6C1189.5 570.8 1149.7 593.2 1109.8 616.9C1099.8 623.1 1092.4 626.9 1082.4 616.9C1027.6 560.8 971.5 506 912.9 447.4C972.8 423.7 1022.6 407.5 1077.4 449.9ZM1043.8 410C1107.4 392.6 1163.4 377.6 1220.7 362.6C1234.4 358.9 1241.9 360.1 1241.9 377.6V525.9C1174.6 487.2 1112.3 449.9 1043.8 410ZM1195.1 932.1C1182.6 917.1 1162.7 933.3 1147.7 937.1C1085.4 952.1 1086.6 953.3 1054.2 897.2C1026.8 847.4 999.4 797.5 969.5 748.9C958.3 729 959.5 719 980.7 710.3C993.2 705.3 1004.4 699.1 1015.6 694.1C1041.8 682.9 1065.4 653 1090.4 658C1119.1 664.2 1136.5 697.9 1158.9 719.1C1228.2 788.9 1296.7 859.9 1367.8 927.2C1394.6 951.8 1411.1 985.6 1413.9 1021.9C1333.4 1008.2 1254.4 995.7 1176.4 980.8C1176.4 978.3 1175.2 975.8 1176.4 973.3C1180.1 958.3 1208.8 949.5 1195.1 932.1ZM645 773.8L645.5 761.3C645.5 672.8 645.5 672.8 731.5 679.1C786.3 682.8 842.4 689.1 897.2 692.8C909.7 694 920.4 694 924.1 709C927.8 724 914.1 725.2 906.7 730.2L671.2 864.8C646.3 879.8 643.8 868.5 645 847.4C646.3 822.4 645 798.8 645 773.8ZM723.5 857.3C789.5 824.9 850.6 787.5 912.9 750.1C936.6 735.1 945.3 742.6 956.5 763.8C986.4 821.1 1018.8 877.2 1052.5 932C1066.2 954.4 1062.5 960.7 1037.5 966.9C919.1 996.8 800.7 1029.2 682.4 1061.6C656.2 1069.1 646.3 1066.6 650 1037.9C651.2 1020.5 650 1001.8 650 973.1C628.8 914.7 667.5 883.5 723.5 857.3ZM646.3 1218.7C647.5 1202.5 650 1185.1 650 1168.9C651.2 1090.4 651.2 1090.4 724.8 1070.5C820.8 1045.6 916.7 1020.7 1012.7 993.2C1051.3 982 1088.7 977 1129.8 996.9C1077.5 1059.2 1026.4 1121.5 976.5 1183.8C959.1 1171.3 966.5 1138.9 945.3 1141.4C926.6 1143.9 931.6 1171.3 925.4 1187.5C920.9 1199.6 917.6 1212.1 915.4 1224.9C915.4 1225.2 915.3 1225.6 915.3 1225.9C913 1240 899.7 1249.6 885.5 1247.3C814.5 1246.1 743.4 1244.8 672.4 1246.1C650 1246.1 643.8 1237.4 646.3 1218.7ZM911.7 424.9C899 429.5 884.9 423.5 879.3 411.2C870.6 397.5 884.3 392.5 890.5 386.3C920.4 353.9 921.7 353.9 990.2 403.7C961.5 411.2 935.4 416.2 911.7 424.9ZM883.5 363.9C867.3 387.6 852.3 388.8 831.2 365.1C800 330.2 765.2 297.8 731.5 264.2C732.7 261.7 734 258 735.2 255.5C793.3 277.9 841.9 317.8 894.7 344C896 355.1 887.3 357.6 883.5 363.9ZM930.4 492.2C977.8 538.3 1023.9 584.4 1075 634.3C1051.7 649.7 1027.6 663.9 1002.7 676.7C967.9 692.4 926.9 678.2 909.2 644.3C876.8 587 844.4 530.9 812 473.6C883 444.9 883 446.1 930.4 492.2ZM642.5 1294.7C642.5 1271 646.2 1261.1 673.7 1262.3C741 1264.8 808.3 1263.5 875.6 1263.5C893 1263.5 903 1266 896.8 1287.2C860.7 1418 825.8 1548.9 789.6 1683.5C767.2 1669.8 748.5 1659.8 731 1649.9C638.8 1597.6 638.8 1597.6 641.3 1492.9C643.8 1426.8 643.8 1360.8 642.5 1294.7ZM940.4 1839.3C934.2 1828.1 930.4 1818.1 941.6 1808.1C950.3 1799.4 957.8 1808.1 965.3 1811.8C1051.3 1861.6 1136 1912.7 1225.7 1965.1C1172.1 1996.3 1123.5 2024.9 1076.2 2053.6C1060 2064.8 1048.8 2068.6 1038.8 2044.9C1007.7 1976.4 974 1907.8 940.4 1839.3ZM916.7 1758.3C906.7 1752.1 898 1744.6 888 1738.4C861.8 1719.7 818.2 1716 812 1686.1C805.8 1658.7 824.5 1625 833.2 1593.9C858.1 1504.2 884.3 1415.7 905.5 1324.7C912.8 1286.4 934.7 1252.5 966.6 1230C991.5 1298.5 1015.2 1365.8 1042.6 1429.4C1050.1 1451.8 1048.8 1460.6 1022.7 1455.6C1014 1454.4 1002.8 1450.6 997.8 1460.6C992.8 1470.6 1004 1475.6 1009 1483C1026.4 1506.7 1066.3 1520.4 1063.8 1551.5C1061.3 1577.7 1037.6 1602.6 1022.7 1628.8C999 1668.7 975.3 1708.6 952.9 1749.7C942.9 1768.3 932.9 1770.7 916.7 1758.3ZM1063.7 1444.3C1037.5 1373.3 1011.4 1301 985.2 1230C978.3 1217.2 980.9 1201.4 991.4 1191.4C1042.5 1132.8 1092.3 1073 1140.9 1013.2C1148.2 1002.1 1161.8 997 1174.5 1000.7C1249.3 1014.4 1325.3 1028.1 1400 1040.6C1416.8 1042.2 1430.8 1054.2 1434.9 1070.5C1459.8 1139 1484.7 1208.8 1510.9 1277.4C1518.6 1292.4 1515.5 1310.6 1503.4 1322.3C1454.8 1378.4 1407.4 1436.9 1358.8 1494.3C1350.1 1504.3 1343.8 1516.7 1330.1 1510.5C1247.9 1496.8 1169.3 1483.1 1089.6 1469.4C1073.7 1466.7 1068.7 1456.7 1063.7 1444.3ZM1322.9 1529C1322.9 1550.2 1289.3 1560.2 1303 1576.4C1316.7 1592.6 1340.4 1577.6 1356.6 1570.2C1400.2 1550.3 1422.6 1566.5 1442.6 1606.3C1467.5 1658.6 1498.7 1708.5 1528.6 1758.3C1541.1 1779.5 1538.6 1790.7 1516.1 1799.4C1501.6 1805.3 1487.5 1811.9 1473.7 1819.3C1405.2 1856.7 1405.2 1856.7 1351.6 1803.1C1280.6 1732.1 1210.8 1661 1139.8 1591.3C1112.4 1563.9 1086.2 1536.5 1086.2 1487.9C1165.9 1501.6 1244.4 1515.3 1322.9 1529ZM1585.9 2086C1598.7 2081.2 1613 2086.5 1619.5 2098.5C1627 2111 1613.3 2115.9 1607 2123.4C1577.1 2155.8 1577.1 2155.8 1508.6 2106C1537.3 2098.5 1562.2 2093.5 1585.9 2086ZM1569.7 2025C1529.8 1978.9 1485 1937.8 1441.3 1895.4C1423.9 1878 1425.1 1870.5 1447.5 1860.5C1474.9 1848 1496.1 1823.1 1531 1830.6C1560.9 1823.1 1575.9 1840.6 1589.6 1866.7C1617 1917.8 1645.7 1967.6 1675.6 2017.5C1684.3 2033.7 1683.1 2039.9 1664.4 2047.4C1627 2062.3 1598.3 2058.6 1569.7 2025ZM1774.5 1652.4C1709.7 1684.8 1647.4 1723.4 1585.1 1759.6C1565.2 1770.8 1555.2 1772.1 1542.7 1749.6C1511.5 1689.8 1477.9 1631.2 1443 1573.9C1430.5 1554 1438 1547.7 1456.7 1542.7C1578.8 1511.5 1699.7 1480.4 1820.6 1446.7C1844.3 1440.5 1851.8 1444.2 1849.3 1467.9C1848.1 1486.6 1849.3 1506.5 1849.3 1536.4H1848.8C1870 1595 1831.8 1626.2 1774.5 1652.4ZM1852.5 1296C1851.3 1311 1848.8 1327.2 1848.8 1342.1C1847.6 1420.6 1847.6 1419.4 1770.3 1440.5C1676.8 1465.4 1583.4 1490.3 1489.9 1516.5C1450 1527.7 1410.1 1536.4 1369 1512.8L1523.5 1328.4C1540.9 1339.6 1532.2 1373.3 1553.4 1369.5C1574.6 1365.8 1570.8 1337.1 1575.8 1319.7C1592 1263.6 1592 1263.6 1649.3 1263.6C1706.6 1263.6 1765.2 1264.8 1823.8 1263.6C1848.8 1263.6 1855 1273.5 1852.5 1296ZM1590.8 1200C1582.1 1234.9 1563.4 1257.3 1533.5 1281C1504.8 1203.7 1478.7 1130.2 1451.3 1056.7C1468.7 1044.2 1495.4 1066.7 1501.1 1045.5C1507.3 1029.3 1482.4 1018.1 1469.9 1005.6C1428.8 963.2 1428.8 964.5 1458.7 912.1C1487.4 863.5 1517.3 817.4 1542.2 767.5C1557.2 737.6 1572.1 740.1 1594.5 757.5C1601.7 763.3 1609.2 768.7 1616.9 773.7C1639.3 791.1 1680.5 796.1 1686.7 822.3C1692.9 848.5 1675.5 879.6 1668 908.3C1643.2 1005.6 1614.5 1102.8 1590.8 1200ZM1676.8 471C1693 474.7 1685.5 486 1680.5 494.7C1648.1 550.8 1615.7 606.9 1579.6 667.9C1542.2 591.9 1509.8 520.9 1477.4 452.3C1466.2 428.6 1476.2 418.7 1497.3 423.6C1557.2 437.4 1617 454.8 1676.8 471ZM1513.6 406.2C1603.3 351.4 1568.4 338.9 1673.1 449.8C1614.5 434.9 1565.9 421.2 1513.6 406.2ZM1558.4 667.9C1563.4 677.9 1569.6 689.1 1559.6 700.3C1547.1 714 1538.4 700.3 1529.7 695.3C1445 646.7 1361.5 596.9 1273 544.5C1329.1 512.1 1381.4 482.2 1431.3 452.3C1447.5 442.3 1453.7 448.6 1460 462.3C1492.4 530.8 1526 599.4 1558.4 667.9ZM1736.6 467.3C1719.2 467.3 1726.6 453.6 1731.6 444.9C1762.8 391.3 1793.9 339 1825.1 285.4C1828.5 285.6 1831.9 286.5 1835.1 287.9C1819.4 346.5 1805.2 407.5 1785.3 466.1C1776.5 494.7 1754.1 467.3 1736.6 467.3ZM1798.9 291.6C1769 343.9 1737.8 396.3 1707.9 448.6C1674.3 413.7 1644.3 381.3 1611.9 347.7C1682.9 306.6 1755.2 258 1832.5 220.6C1831.3 249.2 1811.4 269.2 1798.9 291.6ZM1576.4 271.7C1642.4 253 1708.5 236.8 1775.8 219.4L1779.5 226.9H1779C1719.7 260.5 1660.6 299.2 1600.1 330.3C1575.2 342.8 1559 310.4 1549 290.4C1539 270.4 1566.4 274.1 1576.4 271.7ZM1506.1 287.9C1533.5 296.6 1547.2 322.8 1567.2 339C1568.2 342.5 1567.2 346.3 1564.7 349C1538.3 366.8 1510.3 382.2 1481.2 395.1C1460 402.6 1408.9 340.3 1415.2 317.8C1415.2 314.1 1421.4 310.3 1425.2 309.1C1451.3 301.6 1477.4 295.3 1506.1 287.9ZM1489.9 269.2C1489.2 269.8 1488.7 270.7 1488.7 271.7C1406.5 300.4 1405.2 300.4 1367.8 221.9C1347.9 179.5 1327.9 138.4 1306.7 92.3C1337.9 104.7 1470 234.3 1489.9 269.2ZM1261.9 69.8C1265.6 69.8 1268.1 68.6 1271.9 68.6C1305.5 139.6 1339.2 210.7 1372.8 279.2C1379 291.7 1380.3 299.1 1364.1 305.4C1266.9 344 1261.9 341.5 1261.9 239.4V69.8ZM1284.3 363.9C1327.9 377.6 1371.5 388.8 1415.1 400C1425.1 402.5 1435 405 1437.5 417.4C1438.7 424.9 1433.8 428.6 1427.5 432.4C1372.7 463.6 1319.1 496 1259.3 530.8V382.6C1258.1 362.6 1265.6 357.6 1284.3 363.9ZM1281.1 570.7C1360.9 619.3 1440.6 666.7 1521.6 712.8C1541.5 724 1542.8 732.7 1531.6 751.4C1495.5 808.7 1463.1 867.3 1429.4 925.9C1420.7 942.1 1414.4 949.6 1397 932.1C1301 837.4 1205.1 743.9 1104.2 645.5H1103.7C1153.5 616.8 1194.7 594.4 1235 569.5C1249 559.9 1267.6 560.4 1281.1 570.7ZM1021.9 255.5C1092.4 183.2 1162.2 110.9 1232 38.7C1235.7 41.2 1238.2 43.7 1242 46.2L1242.5 309.1C1242.5 327.8 1235 332.8 1218.8 327.8C1151.5 309.1 1083 290.4 1011.9 270.5C1014.8 265.1 1018.1 260.1 1021.9 255.5ZM1006.4 291.6C1068.7 307.8 1132.3 324 1194.6 341.4V350.1C1144.8 363.8 1093.7 377.5 1042.6 392.5C1000.2 402.5 975.3 366.3 942.9 351.4C940.4 350.2 939.2 343.9 939.2 341.4C940.4 327.7 992.7 287.9 1006.4 291.6ZM962.8 276.6C925.4 337.7 921.7 338.9 868.1 306.5C822 277.8 770.9 254.2 728.5 219.3C810 229.3 884.8 261.7 962.8 276.6ZM707.3 264.2C749.7 306.6 793.3 348.9 833.2 393.8C854.4 418.7 819.5 423.7 812 437.4C805.8 448.6 797 449.9 789.6 436.2C758.4 381.4 727.3 327.8 696.1 273C699.9 270.4 703.6 266.7 707.3 264.2ZM643.8 388.8C641.3 336.5 642.6 285.4 642.6 233C645.2 232.7 647.8 231.9 650.1 230.5C690 300.3 729.9 370.1 769.7 441.1C778.4 454.8 775.9 462.3 759.7 464.8C758.5 464.8 757.2 466 756 466C721.1 474.7 677.5 500.9 653.8 488.4C626.3 473.5 645 423.7 643.8 388.8ZM638.8 1826.8C645 1762 640 1696 640 1622.4C688.6 1651.1 729.7 1674.7 770.8 1698.4C784.5 1707.1 780.8 1717.1 777 1728.3C757.1 1800.6 738.4 1872.9 717.2 1952.6C681.2 1912.8 632.6 1891.6 638.8 1826.8ZM643.8 1909.1C663.7 1929 682.4 1947.7 701.1 1965.2C712.3 1975.2 708.6 1985.1 704.8 1996.4C699.8 2013.8 687.4 2001.4 679.9 2000.1C632.6 1990.1 627.6 1980.1 643.8 1909.1ZM640 2235.6C638.8 2235.6 637.5 2234.4 636.3 2234.4C636.3 2160.9 636.3 2088.6 635.1 2016.3C638.8 2015.1 641.3 2012.6 642.6 2012.6C697.4 2023.8 696.2 2025.1 682.5 2077.4C668.7 2129.6 653.8 2183.2 640 2235.6ZM662.5 2225.6C678.7 2167 693.7 2107.2 711.1 2048.7C721.1 2012.6 746 2042.5 760.9 2043.7C785.8 2047.4 768.4 2063.6 763.4 2072.4C737.2 2118.5 711.1 2163.4 683.6 2209.5C678.7 2216.9 677.4 2226.8 662.5 2225.6ZM663.7 2286.6C706.1 2211.8 748.4 2135.8 790.8 2059.8C829.4 2091 858.1 2125.8 891.7 2160.7C814.4 2204.3 743.4 2251.7 666.2 2289.1L663.7 2286.6ZM719.8 2289.1C773.4 2245.5 834.4 2214.3 894.3 2183.2C926.7 2168.2 934.2 2211.9 966.6 2229.3C875.6 2250.5 800.8 2279.2 719.8 2289.1ZM995.2 2221.8C982.7 2220.6 931.6 2176.9 931.6 2168.2C930.8 2165.7 931.2 2162.9 932.8 2160.7C937.8 2150.7 1016.3 2113.3 1027.5 2114.6C1068.6 2119.6 1066.1 2160.7 1083.6 2185.6C1088.6 2193.1 1082.4 2199.3 1076.1 2200.6C1048.8 2208.1 1021.4 2215.6 995.2 2221.8ZM1082.4 2129.6C1124.8 2140.8 1160.9 2150.8 1200.8 2160.8C1119.8 2201.9 1104.9 2198.2 1082.4 2129.6ZM1020.1 2260.5C1002.7 2245.5 1003.9 2239.3 1027.6 2233.1C1096.1 2214.4 1096.1 2213.2 1126 2276.7C1149.7 2327.8 1174.6 2378.9 1198.3 2430C1138.5 2371.4 1078.7 2315.3 1020.1 2260.5ZM1234.4 2357.7V2442.4C1231.9 2442.4 1230.7 2443.6 1228.2 2443.6C1194.6 2373.8 1160.9 2302.8 1126 2233C1117.3 2214.3 1119.8 2208.1 1141 2201.8C1235.7 2174.4 1235.7 2173.1 1235.7 2272.8C1235.7 2301.6 1234.4 2329 1234.4 2357.7ZM1239.4 2064.8C1239.4 2153.3 1239.4 2153.3 1154.7 2130.8C1129.8 2124.6 1104.9 2117.1 1079.9 2110.9C1069.9 2108.4 1062.5 2103.4 1061.2 2093.5C1060 2083.5 1068.7 2081 1074.9 2077.3C1121 2049.9 1168.4 2023.7 1214.5 1995.1C1238.2 1980.1 1240.7 1991.4 1239.4 2011.3V2064.8ZM1220 1939C1139 1890.4 1058 1843 975.8 1795.7C960.8 1787 955.9 1779.5 965.8 1763.3C1005.7 1697.3 1043.1 1631.2 1084.2 1561.4C1183.9 1661.1 1279.3 1757 1377 1853C1388.2 1864.2 1389.5 1869.2 1374.5 1877.9C1337.1 1897.8 1301 1920.3 1263.6 1941.5C1249.9 1949.4 1232.7 1948.5 1220 1939ZM1471.2 2259.2C1403.9 2330.2 1335.4 2400 1268.1 2471L1256.9 2463.5C1256.9 2375 1256.9 2286.6 1255.7 2196.8C1255.7 2179.4 1264.4 2178.1 1278.1 2181.8C1341.7 2199.2 1405.2 2217.9 1468.8 2234.1C1494.9 2240.5 1479.9 2250.5 1471.2 2259.2ZM1487.4 2219.4C1426.3 2203.2 1364 2185.8 1303 2169.6C1304 2166.8 1304.4 2163.8 1304.2 2160.9C1355.3 2147.2 1408.1 2131 1460 2119.8C1499.9 2111.1 1523.6 2146 1556 2160.9C1557.6 2164 1558.4 2167.4 1558.5 2170.9C1555.9 2187 1503.6 2223.1 1487.4 2219.4ZM1757.8 2291.6C1684.3 2271.7 1610.8 2253 1537.2 2233C1563.4 2176.9 1578.3 2171.9 1628.2 2201.8L1762.8 2280.3C1760.6 2283.9 1759 2287.7 1757.8 2291.6ZM1768.3 2263C1712.2 2229.4 1657.4 2195.7 1595.1 2159.6C1605.8 2150.9 1613.3 2147.1 1617.5 2140.9C1633.7 2118.5 1646.2 2121 1664.9 2140.9C1692.3 2172.1 1723.5 2199.5 1752.1 2229.4C1760.8 2238 1774.5 2244.3 1768.3 2263ZM1790.2 2243C1747.8 2201.9 1708 2160.8 1669.3 2119.6C1645.6 2092.2 1679.3 2086 1689.2 2073.5C1702.9 2052.3 1709.1 2074.7 1714.1 2083.5L1785.1 2206.9C1794.2 2216.8 1796.2 2231.1 1790.2 2243ZM1855 2276.7C1852.5 2277.9 1851.3 2277.9 1848.8 2279.2C1808.9 2210.7 1769.5 2140.9 1729.2 2071.1C1720.5 2056.1 1721.7 2048.7 1740.4 2044.9C1777.8 2036.2 1815.2 2025 1855 2015V2276.7ZM1760.3 2016.2C1791.5 1986.3 1825.1 1953.9 1855 1924C1858.8 2006.3 1850 2015 1760.3 2016.2ZM1845 1887.9C1801.4 1935.3 1756.5 1983.9 1707.9 2036.2C1666.8 1963.9 1633.1 1902.9 1593.3 1835.6C1680.5 1843.1 1760.3 1848.1 1838.8 1855.5C1866.2 1858 1856.3 1875.4 1845 1887.9ZM1856.8 943.3C1855.6 1033 1855.6 1121.5 1855.6 1211.2C1856.8 1237.4 1850.6 1249.8 1819.5 1248.6C1753.5 1244.9 1687.4 1247.4 1621.4 1247.4C1605.2 1247.4 1596.5 1246.2 1601.5 1226.2C1637.6 1094.2 1673.7 962.2 1709.8 827.7C1754.5 852.5 1795.5 876.1 1835.7 902.2C1850.4 910.3 1858.8 926.6 1856.8 943.3ZM1860 701.6C1852.5 760.2 1858.8 820 1858.8 887.3C1810.2 859.9 1769.6 835 1728 812.5C1728 812.5 1727.9 812.5 1727.9 812.4C1719.3 808.6 1715.5 798.6 1719.3 790C1740.5 715.2 1760.4 639.2 1781.6 559.5C1828.8 598.1 1868.7 633 1860 701.6ZM1852.5 610.6C1831.8 585.7 1816.4 565.7 1798.9 547C1790.6 538.8 1788.6 526.2 1793.9 515.8C1800.1 500.8 1811.3 508.3 1820.1 509.6C1866.2 518.4 1870 529.6 1852.5 610.6ZM1844.3 496C1830.6 489.8 1798.2 502.2 1806.9 467.3C1823.1 405 1840.5 343.9 1856.7 281.6H1862.4C1862.4 346.4 1862.4 410 1861.7 474.7C1861.7 486 1866.7 507.2 1844.3 496ZM2400.8 1190.1C2399.6 1191.3 2399.6 1193.8 2398.3 1195.1C2341 1162.7 2282.4 1134 2228.8 1097.9C2201.4 1078 2235 1049.3 2235 1025.6C2291.2 1080.4 2346 1135.2 2400.8 1190.1ZM1878.7 1313.4C1896.1 1277.3 1921.1 1251.1 1970.9 1267.3C2018.8 1267.3 2069.3 1268.5 2121.7 1267.3C2141.6 1267.3 2145.4 1274.8 2141.6 1293.5C2134.1 1328.4 2122.9 1352.1 2080.5 1359.5C2020.7 1370.7 1960.9 1389.4 1901.1 1406.9C1879.9 1413.1 1868.7 1409.4 1872.4 1385.7C1876.2 1362 1866.2 1337.1 1878.7 1313.4ZM1876.2 660.4C1927.3 710.2 1973.4 753.9 2020.8 800C1979.7 823.7 1939.8 846.1 1899.9 868.5C1883.7 877.2 1876.2 876 1876.2 856V660.4ZM2014.5 826.2C2029.5 817.5 2033.2 822.5 2036.9 837.4C2048.1 882.3 2061.8 927.1 2073 972C2077.4 981.9 2074.8 993.5 2066.8 1000.7C2056.8 1006.9 2050.6 997 2043.1 993.2C1990.8 964.5 1938.4 934.6 1882.3 902.2C1929.8 874.8 1972.2 851.1 2014.5 826.2ZM2142.1 755.2C2185.7 730.3 2229.3 706.6 2272.9 681.7C2275.4 680.5 2277.9 681.7 2289.1 681.7H2288.6C2241.2 750.2 2197.6 813.8 2155.8 876.1C2147.1 889.8 2142.1 889.8 2129.6 878.6C2051.2 806.2 2049.9 807.5 2142.1 755.2ZM2093 1054.2C2110.4 1112.8 2125.4 1171.3 2140.4 1229.9C2146.6 1249.8 2131.7 1247.3 2120.5 1247.3H1922.4C1972.2 1176.3 2015.9 1112.7 2057 1047.9C2073.1 1025.6 2086.8 1034.3 2093 1054.2ZM2121.7 1451.7C2120.5 1423 2132.9 1398.1 2139.1 1373.2C2141.6 1362 2151.6 1358.2 2162.8 1357C2177.8 1355.8 2177.8 1368.2 2180.2 1376.9C2195.2 1419.3 2187.7 1429.3 2121.7 1451.7ZM1876.2 1444.3C1897.4 1405.7 1963.4 1413.1 2009.5 1398.2C2044.4 1387 2079.3 1379.5 2119.2 1369.5C2110.5 1401.9 2103 1428.1 2096.8 1455.5C2093.8 1468.2 2085 1478.8 2073.1 1484.2C2044.4 1499.2 2017 1515.4 1988.4 1531.6C1952.3 1552.8 1914.9 1572.7 1875 1595.2L1876.2 1444.3ZM2084.3 1500.3C2066.9 1566.3 2050.7 1624.9 2034.5 1683.5C2029.5 1700.9 2018.3 1691 2010.8 1686C1970.9 1663.6 1932.3 1639.9 1886.2 1612.5C1953.5 1573.9 2014.5 1539 2084.3 1500.3ZM2101.8 1510.3C2106.8 1490.4 2171.6 1440.5 2189 1441.8C2192.4 1442.5 2195.4 1444.2 2197.7 1446.8C2216.4 1468 2213.9 1521.6 2194 1541.5C2159.1 1576.4 2124.2 1611.3 2089.3 1644.9C2081.8 1651.1 2075.6 1661.1 2060.6 1657.4C2074.3 1606.3 2088 1557.7 2101.8 1510.3ZM2203.2 1388.2C2202 1374.5 2184.5 1353.3 2206.9 1345.8C2264.1 1328.4 2321.2 1311 2383.3 1308.4C2328.5 1338.3 2274.9 1369.4 2220.6 1399.3C2208.2 1406.9 2204.4 1396.9 2203.2 1388.2ZM2203.9 1324.6C2172.7 1332.1 2181.5 1299.7 2176.5 1284.7C2169 1263.5 2189 1267.3 2200.2 1267.3H2400.8C2401.1 1269.2 2402 1270.9 2403.3 1272.3C2337.3 1289.7 2271.2 1308.4 2203.9 1324.6ZM2157.8 1218.7C2142.8 1161.4 2130.4 1114 2115.4 1059.2C2200.2 1102.8 2200.2 1102.8 2157.8 1218.7ZM2185.2 1075.4C2160.8 1063.6 2137.5 1049.9 2115.4 1034.3C2114.4 1033.6 2113.5 1032.9 2112.6 1032.1C2096.8 1018.8 2094.7 995.3 2108 979.4C2115.5 968.2 2123 958.2 2129.2 947C2140.4 923.3 2151.6 928.3 2165.3 944.5C2182.7 965.7 2206.4 981.9 2220.1 1003.1C2213.9 1026.8 2208.9 1046.7 2202.7 1069.1C2200.2 1077.9 2194 1080.4 2185.2 1075.4ZM2227.6 973.2C2223.9 972 2220.1 972 2218.9 970.7C2152.9 910.9 2152.9 910.9 2202.7 838.6C2230.1 800 2256.3 761.3 2283.7 722.7C2287.4 723.9 2291.2 726.4 2294.9 727.7C2272.5 808.7 2251.3 891 2227.6 973.2ZM2304.9 640.5C2213.9 691.6 2130.4 738.9 2044.5 787.5C2023.3 710.2 2003.4 634.2 1982.2 553.2C2090.5 581.9 2192.7 610.6 2304.9 640.5ZM1968.4 580.7C1983.4 636.8 1998.3 694.1 2013.3 751.4C2011.4 752.9 2009.3 754.2 2007.1 755.1C1967.2 715.2 1927.3 675.3 1887.5 636.7C1878.8 626.7 1873.8 545.7 1881.3 535.8C1883.2 532.8 1886.5 530.9 1890 530.8C1918.6 524.6 1960.9 552 1968.4 580.7ZM1877.9 457.3C1882.9 395 1879.1 332.7 1879.1 270.4H1886.1C1907.3 347.7 1927.2 424.9 1947.7 502.2C1952.7 520.9 1946.5 523.4 1927.8 519.6C1891.7 513.4 1874.2 499.7 1877.9 457.3ZM1872.5 1218.7V1121.5L1875 950.8C1875 929.6 1880 922.1 1901.2 934.6C1943.6 960.8 1987.2 985.7 2032 1009.4C2049.4 1018.1 2049.4 1026.8 2039.5 1041.8C1995.9 1104.1 1952.3 1166.4 1909.9 1230C1902.4 1242.5 1892.5 1249.9 1878.7 1245C1865 1239.9 1872.5 1227.4 1872.5 1218.7ZM1871.2 1811.9V1626.2C1919.1 1653.6 1958.4 1678.5 1999.6 1702.2C2014.6 1710.9 2015.8 1718.4 2003.3 1730.9C1970.9 1762.1 1938.5 1794.5 1907.3 1826.9C1900.8 1835.3 1890.4 1839.6 1879.9 1838.1C1865 1833.1 1871.2 1820.6 1871.2 1811.9ZM2012 1748.3C1989.6 1864.2 1997 1850.5 1927.3 1838C1951 1804.4 1980.9 1780.7 2012 1748.3ZM1882.4 2240.5C1879.9 2240.5 1876.2 2239.3 1873.7 2239.3C1873.7 2175.7 1874.9 2110.9 1872.5 2047.4C1871.3 2018.7 1878.7 2003.8 1908.6 2001.3C1922.5 1998.9 1936.3 1995.6 1949.7 1991.3C1926 2077.3 1904.9 2159.5 1882.4 2240.5ZM1929.8 1976.4C1863.8 1992.6 1875 1995.1 1873.7 1934C1873.7 1875.4 1883.7 1858 1922.3 1861.7C1942.2 1862.9 1970.9 1850.5 1980.9 1875.4C1990.8 1900.3 1952.2 1970.1 1929.8 1976.4ZM2252.5 1891.6C2162.8 1915.3 2074.3 1939 1979.6 1965.1C1987.1 1935.2 1993.3 1909 1999.5 1884.1C2004.5 1864.2 2020.7 1869.1 2034.4 1870.4C2106.7 1875.4 2177.7 1880.4 2250 1886.6C2251.3 1887.9 2251.3 1890.4 2252.5 1891.6ZM2039.4 1851.7C2019.5 1850.5 2010.7 1845.5 2017 1820.5C2041.9 1725.8 2040.7 1725.8 2125.4 1775.6L2274.9 1869.1C2192.7 1863 2115.5 1856.7 2039.4 1851.7ZM2309.9 1863C2220.2 1809.4 2137.9 1760.8 2059.4 1714.7C2115.5 1658.6 2169.1 1603.8 2226.4 1549C2252.5 1649.9 2279.9 1752.1 2309.9 1863ZM2233.8 1491.6C2232.3 1490.1 2231.1 1488.4 2230.1 1486.6C2211.4 1425.5 2210.2 1425.5 2267.5 1394.4C2311.1 1370.7 2356 1347 2399.6 1323.4L2404.6 1327.1C2347.2 1382 2291.2 1436.8 2233.8 1491.6ZM2434.5 1247.4H2200.2C2182.8 1247.4 2172.8 1246.2 2180.3 1223.7C2190.3 1192.5 2197.7 1161.4 2205.2 1130.2C2208.9 1115.2 2213.9 1110.3 2228.9 1119C2298.7 1160.1 2368.5 1198.8 2438.2 1238.6C2437.2 1241.6 2435.9 1244.6 2434.5 1247.4Z" fill="#05BCA9"/>
</g>
<defs>
<clipPath id="clip0_1_69">
<rect width="2493" height="2499.7" fill="white"/>
</clipPath>
</defs>
</svg>
