<svg width="398" height="312" viewBox="0 0 398 312" fill="none" xmlns="http://www.w3.org/2000/svg">
<g clip-path="url(#clip0_1_72)">
<path d="M64.5999 237.9C66.9999 235.5 70.2999 234.1 73.7999 234.1H391.2C397 234.1 399.9 241.1 395.8 245.2L333.1 307.9C330.7 310.3 327.4 311.7 323.9 311.7H6.49989C0.699894 311.7 -2.20011 304.7 1.89989 300.6L64.5999 237.9Z" fill="url(#paint0_linear_1_72)"/>
<path d="M64.5999 3.8C67.0999 1.4 70.3999 0 73.7999 0H391.2C397 0 399.9 7 395.8 11.1L333.1 73.8C330.7 76.2 327.4 77.6 323.9 77.6H6.49989C0.699894 77.6 -2.20011 70.6 1.89989 66.5L64.5999 3.8Z" fill="url(#paint1_linear_1_72)"/>
<path d="M333.1 120.1C330.7 117.7 327.4 116.3 323.9 116.3H6.49989C0.699894 116.3 -2.20011 123.3 1.89989 127.4L64.5999 190.1C66.9999 192.5 70.2999 193.9 73.7999 193.9H391.2C397 193.9 399.9 186.9 395.8 182.8L333.1 120.1Z" fill="url(#paint2_linear_1_72)"/>
</g>
<defs>
<linearGradient id="paint0_linear_1_72" x1="360.879" y1="-37.4552" x2="141.213" y2="383.294" gradientUnits="userSpaceOnUse">
<stop stop-color="#00FFA3"/>
<stop offset="1" stop-color="#DC1FFF"/>
</linearGradient>
<linearGradient id="paint1_linear_1_72" x1="264.829" y1="-87.6014" x2="45.1629" y2="333.147" gradientUnits="userSpaceOnUse">
<stop stop-color="#00FFA3"/>
<stop offset="1" stop-color="#DC1FFF"/>
</linearGradient>
<linearGradient id="paint2_linear_1_72" x1="312.548" y1="-62.6882" x2="92.8821" y2="358.061" gradientUnits="userSpaceOnUse">
<stop stop-color="#00FFA3"/>
<stop offset="1" stop-color="#DC1FFF"/>
</linearGradient>
<clipPath id="clip0_1_72">
<rect width="397.7" height="311.7" fill="white"/>
</clipPath>
</defs>
</svg>
