<svg width="454" height="454" viewBox="0 0 454 454" fill="none" xmlns="http://www.w3.org/2000/svg">
<g clip-path="url(#clip0_1_79)">
<path d="M436.62 136.768C415.339 117.118 385.9 87.1114 361.923 65.8302L360.504 64.837C358.144 62.9414 355.482 61.4548 352.63 60.4389C294.816 49.6564 25.7501 -0.638272 20.5007 0.000165103C19.0298 0.206168 17.6239 0.739466 16.3864 1.56079L15.0386 2.62485C13.3789 4.31033 12.1184 6.34655 11.3498 8.5836L10.9951 9.50579V14.5424V15.3227C41.2854 99.6674 160.886 375.969 184.437 440.806C185.856 445.204 188.552 453.575 193.588 454H194.723C197.419 454 208.911 438.82 208.911 438.82C208.911 438.82 414.346 189.687 435.13 163.156C437.821 159.888 440.196 156.373 442.224 152.658C442.742 149.751 442.498 146.759 441.516 143.974C440.534 141.19 438.847 138.707 436.62 136.768ZM261.617 165.781L349.296 93.0702L400.726 140.456L261.617 165.781ZM227.567 161.028L76.6123 37.3133L320.85 82.3586L227.567 161.028ZM241.187 193.447L395.689 168.548L219.055 381.36L241.187 193.447ZM56.1114 49.6564L214.94 184.438L191.957 381.502L56.1114 49.6564Z" fill="#FF060A"/>
</g>
<defs>
<clipPath id="clip0_1_79">
<rect width="454" height="454" fill="white"/>
</clipPath>
</defs>
</svg>
