<svg width="2470" height="2500" viewBox="0 0 2470 2500" fill="none" xmlns="http://www.w3.org/2000/svg">
<path d="M1911.64 1663.96C1999.65 1782.23 2090.42 1903.26 2181.19 2024.28C1999.65 2238.83 1774.11 2376.35 1501.8 2434.11C1199.24 2497.38 913.185 2450.62 635.379 2296.59C882.929 2112.3 1124.98 1930.76 1369.78 1749.23C1424.79 1801.49 1477.05 1853.75 1529.31 1903.26C1587.07 1958.27 1565.07 1961.02 1639.33 1919.76C1741.1 1862 1826.37 1782.23 1892.38 1685.96C1895.13 1680.46 1900.63 1674.96 1903.39 1669.46C1900.63 1669.46 1903.39 1669.46 1911.64 1663.96ZM830.668 1906.01C761.904 1958.27 698.641 2005.03 635.379 2054.54C588.619 2090.3 541.86 2123.3 495.1 2159.06C475.846 2175.56 462.094 2175.56 440.089 2156.31C231.047 1969.27 99.02 1738.22 49.51 1463.17C-3.62396e-05 1185.36 44.0089 921.309 176.036 671.008C178.786 665.507 184.287 657.255 187.038 651.754C187.038 649.003 189.788 649.003 195.289 646.253C376.826 885.551 561.114 1124.85 742.65 1364.15C737.149 1372.4 734.399 1377.9 728.898 1383.4C673.886 1441.16 618.875 1498.93 561.114 1553.94C544.61 1570.44 541.86 1584.19 552.862 1603.45C610.624 1713.47 690.39 1804.24 789.41 1878.5C803.163 1886.75 814.165 1895.01 830.668 1906.01ZM1856.63 197.912C1768.61 261.175 1680.59 324.438 1592.57 384.95C1441.29 492.222 1290.01 602.244 1141.48 709.516C1122.23 723.268 1108.47 726.019 1091.97 706.765C1042.46 654.505 990.2 607.745 940.69 555.484C926.938 541.732 913.185 538.981 893.931 547.233C775.657 607.745 682.138 693.012 605.122 800.284C599.621 805.785 594.12 814.037 588.619 822.289C544.61 764.527 503.352 712.266 462.094 657.255C418.085 599.493 376.826 541.732 335.568 486.721C321.815 467.467 319.065 453.714 338.318 434.46C550.111 200.663 811.414 63.1348 1124.98 30.1281C1372.53 2.62256 1609.08 52.1326 1829.12 170.407C1837.37 175.908 1845.62 178.658 1853.88 184.159C1853.88 192.411 1853.88 195.162 1856.63 197.912ZM2304.97 1848.25C2247.2 1773.98 2194.94 1705.22 2142.68 1636.45C2021.66 1476.92 1900.63 1314.64 1776.86 1155.11C1760.36 1133.1 1760.36 1119.35 1779.61 1100.09C1831.87 1047.83 1881.38 995.573 1933.64 943.313C1947.39 929.56 1952.9 915.807 1941.89 896.553C1881.38 781.03 1798.86 684.761 1691.59 607.745C1683.34 602.244 1675.09 593.992 1664.09 588.491C1672.34 580.24 1680.59 574.738 1686.09 569.237C1790.61 489.471 1895.13 412.455 1999.65 332.689C2016.16 318.937 2029.91 313.435 2049.16 332.689C2310.47 569.237 2450.75 863.547 2464.5 1218.37C2470 1424.66 2423.24 1619.95 2329.72 1804.24C2321.47 1815.24 2313.22 1828.99 2304.97 1848.25Z" fill="#231815"/>
</svg>
