<svg width="800" height="800" viewBox="0 0 800 800" fill="none" xmlns="http://www.w3.org/2000/svg">
<g clip-path="url(#clip0_1_27)">
<path d="M390.184 32.584C407.62 23.492 428.904 44.584 419.64 62.004C414.26 76.204 393.86 79.98 383.44 69.156C372.4 58.768 376 38.236 390.184 32.584ZM202.644 52.8C213.236 48.44 226.644 58.144 225.564 69.688C226.688 82.22 211.364 91.444 200.568 85.488C186.264 79.948 187.9 56.728 202.644 52.8ZM586.748 85.84C570.196 83.84 567.576 57.816 583.512 52.576C595.872 46.548 607.212 57.852 609.02 69.568C606.428 79.572 598.052 88.732 586.748 85.84ZM245.316 132.62C263.024 121.42 288.292 138.1 285.568 158.668C284.648 179.436 257.064 191.468 241.5 177.428C226.452 166.4 228.732 141.1 245.316 132.62ZM515.64 144.504C523.54 124.144 555.552 123.528 564.544 143.348C573.432 158.772 562.5 177.872 546.664 183.116C525.688 187.032 505.764 164.356 515.64 144.504ZM367.6 181.96C367.428 164.46 383.368 151.42 400 150.228C411.032 152.44 423.056 157.14 427.788 168.272C436.608 183.628 428.776 204.772 412.84 211.82C405.552 215.904 396.936 214.372 389 213.896C376.868 207.94 366.652 196.26 367.6 181.96ZM88.7 207.46C104.876 197.516 126.7 215.664 120.576 233.236C117.204 248.436 96.772 254.62 85.092 244.916C72.624 235.824 74.6 213.964 88.7 207.46ZM687.6 207.428C701.324 196.772 723.972 208.996 722.336 226.324C723.256 242.124 703.676 254.04 690.052 245.904C675.048 239.16 673.516 216.076 687.6 207.428ZM446.032 238.888C468.68 230.752 495.58 240.488 508.488 260.68C525.516 285.364 516.456 322.956 490.032 337.12C462.652 353.872 422.672 339.672 412.56 309.096C401.08 281.724 417.804 247.468 446.032 238.888ZM313.152 241.58C338.252 229.732 372.032 239.672 384.156 265.348C398.424 290.34 387.392 325.14 361.884 338.044C336.344 352.548 300.312 341.552 287.952 314.72C274.092 288.772 286.4 253.528 313.152 241.58ZM180.1 287.068C182.008 270.896 197.264 260.372 212.656 259.284C229.24 261.284 242.488 274.164 244.292 290.948C243.204 307.564 230.364 323.804 212.756 323.704C193.384 325.372 176.4 306.1 180.1 287.068ZM573.092 262.8C592.98 251.224 620.596 268.076 619.712 290.924C621.076 315.132 590.512 332.192 570.708 317.992C550.136 306.168 551.74 272.868 573.092 262.8ZM259.076 348.12C282.336 341.72 308.932 352.684 320.34 374.064C332.836 395.584 327.728 425.48 308.32 441.264C283.428 464.416 237.52 455.12 224.272 423.524C209.048 394.56 227.54 355.744 259.076 348.12ZM511.112 348C533.724 341.532 560.288 350.248 572.444 370.848C588.516 394.408 580.844 429.548 556.916 444.736C531.852 462.372 493.028 453.112 479.236 425.536C462.516 397.012 479.34 356.7 511.112 348ZM109.472 374.88C129.564 367.28 151.836 389.452 143.696 409.372C138.724 427.52 113.148 434.228 99.936 420.848C84.476 408.284 90.2 380.328 109.472 374.88ZM654.072 403.788C653.492 387.14 665.672 372.396 682.744 371.476C696.504 373.656 709.884 384.756 708.796 399.736C710.056 419.52 686.216 432.968 669.36 423.672C661.46 419.656 657.408 411.552 654.072 403.788ZM10.68 384.652C22.768 379.376 37.72 389.852 34.96 403.276C34.312 418.476 11.872 424.32 3.62804 411.62C-3.65596 402.8 0.704043 389.2 10.68 384.652ZM772.852 384.348C781.364 378.288 795.02 382.644 798.392 392.588C804.112 403.448 793.624 418.328 781.4 416.492C764.24 418.056 758.688 391.904 772.852 384.348ZM324.732 457.312C356.54 449.04 390.732 475.564 390.932 508.316C393.008 541.412 359.332 570.76 326.772 563.116C301.604 559.064 281.856 534.82 282.672 509.388C282.604 485.064 300.96 462.456 324.732 457.312ZM450.7 457.244C482.984 448.22 518.196 475.22 517.684 508.728C519.388 541.212 486.764 569.572 454.884 563.128C424.884 559.248 402.748 526.288 411.124 497.176C415.352 477.776 431.56 462 450.7 457.244ZM207.824 477.404C230.164 473.592 251.108 498.516 242.048 519.728C235.44 542.332 202.544 548.464 188 530C170.94 512.268 183.676 479.852 207.824 477.404ZM577.244 478.4C597.164 470.056 621.616 487.288 620.084 508.908C620.884 532.708 590.696 549.12 571.216 535.228C549.152 522.756 553.168 486.052 577.244 478.4ZM680.5 581.968C672.7 567.428 686.868 548.156 703.012 550.848C711.048 550.712 716.668 557.044 721.812 562.356C722.868 570.972 724.64 581.252 717.488 587.892C707.776 600.184 685.776 596.676 680.5 581.968ZM88.632 554.896C103.72 544.852 125.432 559.832 122.04 577.472C120.236 593.072 100.584 601.988 87.64 593.136C73.748 585.1 74.26 562.22 88.632 554.896ZM386.712 587.552C406.464 578.836 431.628 596.032 429.756 617.788C431.22 641.828 400.096 658.476 380.784 644.04C359.332 631.644 362.908 595.176 386.712 587.552ZM248.652 619.76C265.476 610.908 288.052 626.196 286.52 645.024C287.032 660.484 271.944 673.66 256.688 671.376C244.052 671.104 235.812 659.776 231.76 649.004C231.968 637.264 236.8 624.188 248.652 619.76ZM528.308 620.032C545.608 609.34 570.196 624.696 568.56 644.832C569.004 665.876 541.216 679.356 525.108 665.532C509.512 654.696 511.416 628.648 528.308 620.032ZM576.94 740.26C569.244 728.616 578.304 714.588 590.8 711.932C600.848 713.976 611.472 721.532 609.36 733.18C607.896 748.944 584.84 753.78 576.94 740.26ZM190.896 730.148C193.96 720.92 201.384 711.748 212.248 714.148C228.084 715.272 232.784 739.14 218.924 746.496C206.46 754.9 192 743.392 190.896 730.148ZM377.14 740.736C380.172 727.084 397.844 720.444 409.492 727.696C417.188 731 419.436 739.612 421.412 746.932C420.356 750.744 419.412 754.56 418.484 758.372C413.716 764.024 407.588 769.676 399.652 769.472C384.904 771.2 371.6 754.528 377.14 740.736Z" fill="#3CC8C8"/>
</g>
<defs>
<clipPath id="clip0_1_27">
<rect width="800" height="800" fill="white"/>
</clipPath>
</defs>
</svg>
