<svg width="1543" height="2500" viewBox="0 0 1543 2500" fill="none" xmlns="http://www.w3.org/2000/svg">
<g clip-path="url(#clip0_1_30)">
<path d="M0 1361.05C271.87 1505.43 555.56 1656.56 774.67 1773.5L1543 1361.05C1264.8 1774.34 1033 2118.41 774.67 2499.2C515.88 2119.25 230.08 1700 0 1361.05ZM29.55 1247.05L775.51 849L1511.76 1244.14L775.93 1642.63L29.55 1247.05ZM774.67 721.47L0 1129.28L771.29 0L1543 1131.81L774.67 721.47Z" fill="#3AB83A"/>
<path d="M774.67 1773.5L1543 1361.05C1264.8 1774.34 774.67 2499.2 774.67 2499.2V1773.5ZM775.51 849L1511.76 1244.14L775.93 1642.63L775.51 849ZM774.67 721.5L771.29 0L1543 1131.81L774.67 721.5Z" fill="#0B8311"/>
<path d="M29.55 1247.06L775.55 1308.28L1511.8 1244.53L775.93 1643.05L29.55 1247.06Z" fill="#0B8311"/>
<path d="M775.51 1308.28L1511.76 1244.53L775.93 1643.05L775.51 1308.28Z" fill="#146714"/>
</g>
<defs>
<clipPath id="clip0_1_30">
<rect width="1543" height="2499.2" fill="white"/>
</clipPath>
</defs>
</svg>
